<svg width="1366" height="116" viewBox="0 0 1366 116" fill="none" xmlns="http://www.w3.org/2000/svg">
<path fill-rule="evenodd" clip-rule="evenodd" d="M0 46.548L45.5333 55.8577C91.0667 65.1673 182.133 83.7865 273.2 79.1317C364.267 74.4769 455.333 46.548 546.4 27.9288C637.467 9.30961 728.533 0 819.6 0C910.667 0 1001.73 9.30961 1092.8 25.6014C1183.87 41.8932 1274.93 65.1673 1320.47 76.8043L1366 88.4413V116.37H1320.47C1274.93 116.37 1183.87 116.37 1092.8 116.37C1001.73 116.37 910.667 116.37 819.6 116.37C728.533 116.37 637.467 116.37 546.4 116.37C455.333 116.37 364.267 116.37 273.2 116.37C182.133 116.37 91.0667 116.37 45.5333 116.37H0V46.548Z" fill="#224957" fill-opacity="0.8"/>
</svg>
