<svg width="26" height="25" viewBox="0 0 26 25" fill="none" xmlns="http://www.w3.org/2000/svg">
<path d="M13 15.0643C14.8075 15.0643 16.2727 13.715 16.2727 12.0505C16.2727 10.3861 14.8075 9.03674 13 9.03674C11.1925 9.03674 9.72726 10.3861 9.72726 12.0505C9.72726 13.715 11.1925 15.0643 13 15.0643Z" stroke="white" stroke-width="2" stroke-linecap="round" stroke-linejoin="round"/>
<path d="M21.0727 15.0643C20.9275 15.3673 20.8842 15.7034 20.9484 16.0293C21.0125 16.3552 21.1812 16.6559 21.4327 16.8927L21.4982 16.9529C21.701 17.1395 21.862 17.3611 21.9718 17.605C22.0816 17.849 22.1381 18.1104 22.1381 18.3744C22.1381 18.6385 22.0816 18.8999 21.9718 19.1438C21.862 19.3878 21.701 19.6093 21.4982 19.7959C21.2956 19.9827 21.0549 20.1309 20.7901 20.2321C20.5252 20.3332 20.2413 20.3852 19.9545 20.3852C19.6678 20.3852 19.3839 20.3332 19.119 20.2321C18.8542 20.1309 18.6135 19.9827 18.4109 19.7959L18.3455 19.7357C18.0884 19.5041 17.7618 19.3487 17.4079 19.2896C17.054 19.2305 16.689 19.2704 16.36 19.4042C16.0373 19.5315 15.7622 19.7429 15.5683 20.0125C15.3745 20.282 15.2705 20.5978 15.2691 20.9211V21.0919C15.2691 21.6247 15.0392 22.1358 14.6301 22.5126C14.2209 22.8894 13.6659 23.1011 13.0873 23.1011C12.5086 23.1011 11.9537 22.8894 11.5445 22.5126C11.1353 22.1358 10.9055 21.6247 10.9055 21.0919V21.0015C10.897 20.6689 10.7801 20.3465 10.57 20.0759C10.3599 19.8054 10.0663 19.5993 9.72727 19.4845C9.39824 19.3508 9.03324 19.3109 8.67936 19.37C8.32547 19.4291 7.99892 19.5844 7.74182 19.816L7.67636 19.8763C7.47373 20.0631 7.2331 20.2113 6.96823 20.3124C6.70336 20.4135 6.41945 20.4656 6.13273 20.4656C5.846 20.4656 5.56209 20.4135 5.29722 20.3124C5.03235 20.2113 4.79172 20.0631 4.58909 19.8763C4.38623 19.6897 4.2253 19.4681 4.11551 19.2242C4.00571 18.9803 3.94919 18.7188 3.94919 18.4548C3.94919 18.1908 4.00571 17.9293 4.11551 17.6854C4.2253 17.4415 4.38623 17.2199 4.58909 17.0333L4.65455 16.973C4.90604 16.7363 5.07475 16.4356 5.13891 16.1097C5.20308 15.7838 5.15976 15.4477 5.01455 15.1447C4.87626 14.8475 4.64664 14.5941 4.35396 14.4156C4.06128 14.2372 3.71831 14.1414 3.36727 14.1401H3.18182C2.60316 14.1401 2.04821 13.9284 1.63904 13.5516C1.22987 13.1748 1 12.6638 1 12.1309C1 11.598 1.22987 11.087 1.63904 10.7102C2.04821 10.3334 2.60316 10.1217 3.18182 10.1217H3.28C3.64108 10.1139 3.99128 10.0063 4.28505 9.81281C4.57883 9.61931 4.8026 9.34891 4.92727 9.03675C5.07249 8.73375 5.11581 8.39763 5.05164 8.07175C4.98748 7.74586 4.81877 7.44515 4.56727 7.20839L4.50182 7.14811C4.29896 6.96151 4.13803 6.73992 4.02823 6.49601C3.91843 6.2521 3.86192 5.99065 3.86192 5.72661C3.86192 5.46257 3.91843 5.20112 4.02823 4.95721C4.13803 4.7133 4.29896 4.49171 4.50182 4.30511C4.70445 4.11831 4.94508 3.97011 5.20995 3.869C5.47482 3.76789 5.75873 3.71584 6.04545 3.71584C6.33218 3.71584 6.61609 3.76789 6.88096 3.869C7.14583 3.97011 7.38646 4.11831 7.58909 4.30511L7.65455 4.36539C7.91165 4.59698 8.2382 4.75234 8.59209 4.81143C8.94597 4.87052 9.31096 4.83063 9.64 4.6969H9.72727C10.0499 4.56956 10.3251 4.35811 10.5189 4.08859C10.7128 3.81906 10.8168 3.50323 10.8182 3.17997V3.00919C10.8182 2.47632 11.0481 1.96527 11.4572 1.58848C11.8664 1.21168 12.4213 1 13 1C13.5787 1 14.1336 1.21168 14.5428 1.58848C14.9519 1.96527 15.1818 2.47632 15.1818 3.00919V3.0996C15.1832 3.42286 15.2872 3.7387 15.4811 4.00822C15.6749 4.27774 15.9501 4.48919 16.2727 4.61654C16.6018 4.75026 16.9668 4.79015 17.3206 4.73106C17.6745 4.67198 18.0011 4.51662 18.2582 4.28502L18.3236 4.22474C18.5263 4.03794 18.7669 3.88974 19.0318 3.78863C19.2966 3.68752 19.5805 3.63548 19.8673 3.63548C20.154 3.63548 20.4379 3.68752 20.7028 3.78863C20.9676 3.88974 21.2083 4.03794 21.4109 4.22474C21.6138 4.41134 21.7747 4.63293 21.8845 4.87685C21.9943 5.12076 22.0508 5.38221 22.0508 5.64624C22.0508 5.91028 21.9943 6.17173 21.8845 6.41564C21.7747 6.65955 21.6138 6.88114 21.4109 7.06774L21.3455 7.12802C21.094 7.36478 20.9253 7.66549 20.8611 7.99138C20.7969 8.31726 20.8402 8.65338 20.9855 8.95638V9.03675C21.1237 9.33387 21.3534 9.58728 21.646 9.76577C21.9387 9.94426 22.2817 10.0401 22.6327 10.0413H22.8182C23.3968 10.0413 23.9518 10.253 24.361 10.6298C24.7701 11.0066 25 11.5177 25 12.0505C25 12.5834 24.7701 13.0944 24.361 13.4712C23.9518 13.848 23.3968 14.0597 22.8182 14.0597H22.72C22.369 14.061 22.026 14.1568 21.7333 14.3353C21.4406 14.5138 21.211 14.7672 21.0727 15.0643V15.0643Z" stroke="white" stroke-width="2" stroke-linecap="round" stroke-linejoin="round"/>
</svg>
